<svg xmlns="http://www.w3.org/2000/svg" viewBox="0 0 7.67 7.61"><defs><style>.cls-1{fill:none;stroke:#fff;stroke-miterlimit:10;stroke-width:0.75px;}.cls-2{fill:#fff;}</style></defs><g id="Layer_2" data-name="Layer 2"><g id="Layer_1-2" data-name="Layer 1"><circle class="cls-1" cx="3.82" cy="3.8" r="1.8"/><rect class="cls-2" x="3.48" width="0.59" height="1.39" rx="0.3"/><rect class="cls-2" x="3.48" y="6.22" width="0.59" height="1.39" rx="0.3"/><rect class="cls-2" x="1.33" y="5.26" width="0.59" height="1.39" rx="0.3" transform="translate(4.44 0.46) rotate(42.38)"/><rect class="cls-2" x="0.4" y="3.06" width="0.59" height="1.39" rx="0.3" transform="translate(4.45 3.06) rotate(90)"/><rect class="cls-2" x="1.33" y="0.89" width="0.59" height="1.39" rx="0.3" transform="translate(3.9 1.45) rotate(132.38)"/><rect class="cls-2" x="5.75" y="5.26" width="0.59" height="1.39" rx="0.3" transform="translate(14.52 6.28) rotate(137.62)"/><rect class="cls-2" x="6.68" y="3.06" width="0.59" height="1.39" rx="0.3" transform="translate(10.73 -3.22) rotate(90)"/><rect class="cls-2" x="5.75" y="0.89" width="0.59" height="1.39" rx="0.3" transform="translate(3.14 -3.95) rotate(47.62)"/></g></g></svg>