<svg xmlns="http://www.w3.org/2000/svg" viewBox="0 0 5.22 7.25"><defs><style>.cls-1{fill:#fff;}</style></defs><g id="Layer_2" data-name="Layer 2"><g id="Layer_1-2" data-name="Layer 1"><path class="cls-1" d="M2.37,7.25A2.33,2.33,0,0,1,.22,5.67a2.91,2.91,0,0,1-.1-1.93A9.45,9.45,0,0,1,2.41.15L2.58,0l.17.14A7.9,7.9,0,0,1,5,3.4a3,3,0,0,1-.37,2.83,2.48,2.48,0,0,1-2.07,1ZM2.6.68a8.72,8.72,0,0,0-2,3.2A2.34,2.34,0,0,0,.68,5.47,1.85,1.85,0,0,0,2.59,6.75a2,2,0,0,0,1.67-.83,2.48,2.48,0,0,0,.29-2.35A7.45,7.45,0,0,0,2.6.68Z"/><path class="cls-1" d="M1.47,5.66a2.51,2.51,0,0,1-.38-1.73.24.24,0,0,1,.3-.21h0A.24.24,0,0,1,1.58,4,1.91,1.91,0,0,0,1.86,5.3a1.23,1.23,0,0,0,.92.42A.24.24,0,0,1,3,6H3a.23.23,0,0,1-.27.24A1.92,1.92,0,0,1,1.47,5.66Z"/></g></g></svg>