<svg xmlns="http://www.w3.org/2000/svg" viewBox="0 0 7.46 6.02"><defs><style>.cls-1{fill:#fff;}</style></defs><g id="Layer_2" data-name="Layer 2"><g id="Layer_1-2" data-name="Layer 1"><path class="cls-1" d="M.34,1.33H3.28A.53.53,0,0,0,3.76,1,.31.31,0,0,0,3.7.66s0-.13-.49-.15A.25.25,0,0,1,3.15,0h0S4.62-.21,4.58.94c0,0,0,1.1-1.3,1L.37,2A.37.37,0,0,1,0,1.7a.33.33,0,0,1,0-.17A.34.34,0,0,1,.34,1.33Z"/><path class="cls-1" d="M.34,4.69H4.12A.51.51,0,0,1,4.6,5a.31.31,0,0,1,0,.37s0,.13-.5.14A.25.25,0,0,0,4,6H4s1.45.22,1.41-.92c0,0,0-1.1-1.29-1H.37A.36.36,0,0,0,0,4.32a.33.33,0,0,0,0,.17A.34.34,0,0,0,.34,4.69Z"/><path class="cls-1" d="M.34,2.71H6.16a.53.53,0,0,0,.49-.3A.33.33,0,0,0,6.59,2s0-.13-.49-.14A.25.25,0,0,1,6,1.4h0s1.45-.22,1.41.92c0,0,0,1.1-1.29,1H.37A.36.36,0,0,1,0,3.08a.33.33,0,0,1,0-.17A.34.34,0,0,1,.34,2.71Z"/></g></g></svg>